<svg width="1488" height="1409" viewBox="0 0 1488 1409" fill="none" xmlns="http://www.w3.org/2000/svg">
<rect width="1488" height="1409" rx="704.5" fill="white"/>
<g clip-path="url(#clip0_402_63)">
<path d="M741.168 576.373L741.134 576.598L741.044 577.25L731.712 645.408L674.568 666.747L673.673 666.312L641.68 650.848L625.138 586.247L624.004 581.812L624.349 581.677L695.123 554.615L741.126 576.347L741.168 576.373Z" fill="#47BE7D"/>
<path d="M673.673 666.312L641.68 650.848L624.004 581.813L624.349 581.678L670.458 601.476L673.673 666.312Z" fill="#47BE7D"/>
<path opacity="0.2" d="M674.476 665.524L650.141 618.06L653.266 604.605L638.546 586.963L637.293 588.047L651.474 605.043L640.881 650.655L642.482 651.041L649.562 620.551L673.018 666.298L674.476 665.524Z" fill="black"/>
<path d="M741.168 577.209L741.044 577.25L670.458 602.313L625.138 586.247L624.004 581.812L624.349 581.677L695.123 554.615L741.126 576.347L741.134 576.598L741.168 577.209Z" fill="#3F3D56"/>
<path d="M671.694 603.568L657.305 592.272L660.593 579.72L701.703 564.656L729.658 566.33L740.759 575.954L741.58 578.463L671.694 603.568Z" fill="#47BE7D"/>
<path d="M624.828 581.812L657.305 580.556L674.898 574.479L702.329 564.656L707.459 557.126L694.659 554.794L624.828 581.812Z" fill="#47BE7D"/>
<path d="M689.531 568.346L672.598 574.395L673.142 575.973L690.076 569.925L689.531 568.346Z" fill="#CCCCCC"/>
<path d="M466.486 470.484L458.547 510.882L495.594 539.161L512.795 486.643L466.486 470.484Z" fill="#9F616A"/>
<path d="M496.255 507.515C515.985 507.515 531.979 491.237 531.979 471.157C531.979 451.077 515.985 434.799 496.255 434.799C476.525 434.799 460.531 451.077 460.531 471.157C460.531 491.237 476.525 507.515 496.255 507.515Z" fill="#9F616A"/>
<path d="M418.855 746.639C419.019 758.369 469.216 888.92 462.247 905.919C451.26 917.349 427.628 978.186 417.532 994.415C416.209 994.414 409.594 1014.61 409.594 1014.61C409.594 1014.61 425.471 1040.2 442.671 1029.43C464.299 977.655 518.464 948.78 519.421 881.304C522.035 902.619 529.752 1039.44 529.752 1039.44C529.752 1039.44 528.272 1040.08 561.595 1043.33C566.768 963.92 587.91 828.82 540.579 743.944C526.027 737.213 418.855 746.639 418.855 746.639Z" fill="#2F2E41"/>
<path d="M529.749 1036.78C528.202 1039.8 517.109 1067.75 527.204 1070.55C538.845 1073.78 550.13 1069.26 550.13 1069.26C550.13 1069.26 570.509 1075.74 582.981 1067.5C588.802 1061.58 587.479 1056.19 584.701 1052.29C583.289 1050.36 581.482 1048.78 579.406 1047.64C577.33 1046.5 575.034 1045.83 572.679 1045.69C566.35 1045.23 564.34 1044.04 563.615 1041.09C562.557 1036.78 529.749 1036.78 529.749 1036.78Z" fill="#2F2E41"/>
<path d="M420.884 1012.37C420.884 1012.37 392.447 1021.51 398.434 1032.18C402.322 1038.79 407.999 1044.11 414.785 1047.52C414.785 1047.52 420.716 1072.41 437.18 1072.41C445.412 1072.41 448.218 1067.65 448.967 1062.89C449.305 1060.51 449.13 1058.09 448.453 1055.79C447.776 1053.49 446.614 1051.37 445.048 1049.57C440.892 1044.69 440.3 1042.4 441.838 1039.79C444.083 1035.98 420.884 1012.37 420.884 1012.37Z" fill="#2F2E41"/>
<path d="M547.201 750.58C547.201 750.58 541.902 761.353 520.734 757.308C499.565 753.277 416.214 757.308 416.214 757.308C416.214 757.308 420.837 661.031 410.253 603.124C399.669 545.217 441.344 512.226 441.344 512.226L454.578 498.757C467.811 497.422 495.756 539.215 495.756 539.215C504.952 540.784 513.537 580.568 520.861 618.213C521.294 620.365 521.702 622.491 522.109 624.617C525.484 642.169 530.184 661.705 532.999 679.244C533.203 680.488 533.394 681.72 533.572 682.951C536.919 705.727 541.468 728.303 547.201 750.58Z" fill="#E6E6E6"/>
<path d="M454.465 448.518C454.465 448.518 447.786 433.563 465.152 426.765C465.152 426.765 479.846 402.294 509.234 418.608C509.234 418.608 529.272 426.765 529.272 448.518C529.272 470.271 535.951 474.35 535.951 474.35C535.951 474.35 526.004 463.964 523.333 455.807C520.661 447.65 499.883 445.799 491.869 453.957C483.854 462.114 463.816 460.754 463.816 460.754L465.152 490.664C465.152 490.664 458.473 472.99 455.801 472.99C453.13 472.99 450.458 448.518 454.465 448.518Z" fill="#2F2E41"/>
<path opacity="0.2" d="M533 679.244C501.438 661.783 450.312 623.49 433.817 602.774C412.075 575.487 435.791 554.746 435.791 554.746C462.679 537.479 494.827 596.721 494.827 596.721L520.862 618.214C521.295 620.365 521.702 622.491 522.11 624.617C525.485 642.17 530.185 661.705 533 679.244Z" fill="black"/>
<path d="M627.219 659.122C627.219 659.122 674.142 678.509 681.865 656.715C689.588 634.921 644.818 635.295 644.818 635.295L627.243 637.83L627.219 659.122Z" fill="#9F616A"/>
<path d="M429.776 545.877C429.776 545.877 406.071 566.63 427.798 593.909C449.524 621.187 549.373 679.472 549.373 679.472L614.413 661.577L632.819 665.005L636.289 629.835L609.174 632.529L540.341 617.613L496.45 581.366C496.45 581.366 456.657 528.619 429.776 545.877Z" fill="#E6E6E6"/>
<path opacity="0.2" d="M516.134 795.885L520.281 894.51L509.766 795.885H516.134Z" fill="black"/>
<path d="M963.882 725.334L926.234 734.212C923.322 734.899 920.261 734.403 917.702 732.83C915.144 731.256 913.288 728.729 912.531 725.786C912.092 724.079 912.038 722.293 912.373 720.562C912.709 718.831 913.425 717.199 914.468 715.79C915.512 714.381 916.855 713.23 918.397 712.425C919.94 711.619 921.641 711.179 923.375 711.138L959.74 710.277L963.882 725.334Z" fill="#FFB9B9"/>
<path d="M959.885 730.958L951.523 705.428L1001.65 688.002L988.346 568.759C1012.3 573.191 1023.7 592.362 1022.63 617.117L1029.12 698.485L959.885 730.958Z" fill="#3F3D56"/>
<path d="M994.52 542.468H1076.42V501.018C1076.44 489.823 1072.13 479.068 1064.42 471.088C1060.65 467.156 1056.15 464.033 1051.18 461.903C1046.2 459.773 1040.86 458.68 1035.46 458.688C1024.69 458.708 1014.35 463.044 1006.69 470.758C999.034 478.472 994.665 488.944 994.532 499.911C994.526 500.29 994.52 500.651 994.52 501.018L994.52 542.468Z" fill="#2F2E41"/>
<path d="M1110.66 1029.57L1084.48 1026.51L1053.15 811.176L988.348 1027.39L960.023 1028.26L992.211 762.256L987.49 701.542L1067.74 675.771C1124.59 716.156 1123.41 858.796 1110.66 1029.57Z" fill="#2F2E41"/>
<path d="M1028.26 534.252C1045.32 534.252 1059.16 520.172 1059.16 502.803C1059.16 485.435 1045.32 471.354 1028.26 471.354C1011.19 471.354 997.359 485.435 997.359 502.803C997.359 520.172 1011.19 534.252 1028.26 534.252Z" fill="#FFB9B9"/>
<path d="M1059.16 559.586L1006.8 573.563C1015.62 556.297 1018.45 540.18 1013.67 525.516L1050.58 519.401C1048.2 533.422 1051.28 547.833 1059.16 559.586Z" fill="#FFB9B9"/>
<path d="M1076.76 687.565C1047.39 706.572 1013.18 728.408 987.918 707.22L975.902 647.817C966.351 639.159 970.586 612.443 983.497 574.362C984.317 571.945 985.667 569.749 987.445 567.942C989.223 566.135 991.381 564.763 993.757 563.931L1013.67 556.965C1022.49 564.518 1036.96 560.013 1054.01 549.977L1073.75 555.218L1082.33 620.736C1069.94 639.63 1072.11 664.787 1076.76 687.565Z" fill="#3F3D56"/>
<path d="M1052.29 713.104L1014.64 721.983C1011.73 722.669 1008.67 722.173 1006.11 720.6C1003.55 719.027 1001.69 716.5 1000.94 713.557C1000.5 711.85 1000.44 710.064 1000.78 708.332C1001.12 706.601 1001.83 704.97 1002.87 703.561C1003.92 702.151 1005.26 701.001 1006.8 700.195C1008.35 699.389 1010.05 698.95 1011.78 698.909L1048.15 698.048L1052.29 713.104Z" fill="#FFB9B9"/>
<path d="M1106.11 1070.74C1101.71 1072.78 1098.03 1060.12 1094.32 1063.83C1083.95 1074.21 1059.06 1071.88 1059.06 1071.88C1058.22 1071.61 1057.45 1071.17 1056.79 1070.58C1056.13 1069.99 1055.59 1069.28 1055.21 1068.47C1054.82 1067.67 1054.61 1066.79 1054.57 1065.9C1054.53 1065.01 1054.66 1064.12 1054.97 1063.28C1055.34 1062.28 1055.94 1061.39 1056.73 1060.67C1057.51 1059.96 1058.45 1059.46 1059.47 1059.2L1070.5 1056.39L1087.83 1025.38L1106.71 1022.95L1107.18 1023.75C1110.83 1029.73 1113.18 1036.44 1114.08 1043.43C1114.98 1050.41 1114.41 1057.51 1112.4 1064.26C1110.83 1069.38 1108.69 1069.54 1106.11 1070.74Z" fill="#2F2E41"/>
<path d="M981.651 1070.74C977.254 1072.78 973.571 1060.12 969.862 1063.83C959.488 1074.21 934.602 1071.88 934.602 1071.88C933.766 1071.61 932.994 1071.17 932.332 1070.58C931.669 1069.99 931.131 1069.28 930.749 1068.47C930.366 1067.67 930.149 1066.79 930.108 1065.9C930.068 1065.01 930.206 1064.12 930.514 1063.28C930.883 1062.28 931.485 1061.39 932.269 1060.67C933.053 1059.96 933.995 1059.46 935.014 1059.2L946.046 1056.39L963.369 1025.38L982.248 1022.95L982.725 1023.75C986.375 1029.73 988.728 1036.44 989.627 1043.43C990.527 1050.41 989.952 1057.51 987.941 1064.26C986.371 1069.38 984.234 1069.54 981.651 1070.74Z" fill="#2F2E41"/>
<path d="M1064.48 476.572L1056.7 501.772L989.418 500.555C989.648 491.738 992.578 483.215 997.799 476.175C1003.02 469.136 1010.27 463.931 1018.54 461.29C1026.81 458.648 1035.68 458.701 1043.92 461.441C1052.15 464.181 1059.35 469.471 1064.48 476.572Z" fill="#2F2E41"/>
<path d="M1048.29 718.727L1039.93 693.198L1090.06 675.771L1071.1 553.944C1082.68 556.088 1093.11 562.429 1100.45 571.794C1107.8 581.16 1111.56 592.916 1111.04 604.886L1117.53 686.254L1048.29 718.727Z" fill="#3F3D56"/>
<path d="M928.566 649.9L876.429 661.312L865.777 609.105L885.399 582.288L903.057 578.864L922.679 599.119L928.566 649.9Z" fill="#CCCCCC"/>
<path d="M904.461 652.177H873.065L868.785 630.671L864.098 607.104L871.103 596.837L884.566 601.115L899.137 621.661L902.793 642.597L903.047 644.088L904.461 652.177Z" fill="#E6E6E6"/>
<path d="M957.159 639.629L921 643.909L927.447 597.123L942.022 583.714L954.636 586.852L963.046 606.537L957.159 639.629Z" fill="#CCCCCC"/>
<path d="M961.919 611.951L958.557 630.787L947.628 694.968L905.583 708.67L904.131 707.866L881.472 695.253L868.723 630.644L868.786 630.67L902.501 644.476L902.794 642.596L902.998 641.235L905.583 624.513L917.072 611.951L955.474 602.54L961.919 611.951Z" fill="#E6E6E6"/>
<path d="M935.294 609.96C940.248 609.96 944.264 605.873 944.264 600.831C944.264 595.789 940.248 591.702 935.294 591.702C930.34 591.702 926.324 595.789 926.324 600.831C926.324 605.873 930.34 609.96 935.294 609.96Z" fill="#E6E6E6"/>
<path d="M913.239 605.542L892.777 609.251L892.876 609.813L913.338 606.104L913.239 605.542Z" fill="white"/>
<path d="M904.13 707.867L881.471 695.254L868.721 630.645L868.785 630.671L864.098 607.104L871.103 596.837L884.566 601.115L899.137 621.661L902.793 642.597L902.996 641.236L903.047 644.088L903.187 652.177L904.13 707.867Z" fill="#F2F2F2"/>
<path d="M881.746 695.333L881.203 695.186L892.38 652.529L879.582 635.357L880.029 635.012L892.993 652.406L881.746 695.333Z" fill="#CCCCCC"/>
<path d="M888.056 670.981L887.551 671.229L905.328 708.792L905.833 708.544L888.056 670.981Z" fill="#CCCCCC"/>
<path opacity="0.2" d="M959.711 626.878L957.606 638.714L957.499 638.726L948.076 694.059L906.03 707.753L905.778 707.875L905.61 707.519L881.924 694.344L881.652 694.27L881.798 693.711L869.17 629.728L869.235 629.754L867.836 622.73L868.881 621.198L872.113 616.462L885.568 620.741L900.144 641.282L900.357 642.503L901.887 651.267L902.501 654.787L903.799 662.224L905.032 654.234L905.475 651.358L906.591 644.135L918.083 631.582L923.193 630.33L926.75 629.457L931.644 628.259C930.126 627.32 928.917 625.943 928.168 624.304C927.42 622.664 927.166 620.836 927.44 619.049C927.714 617.263 928.503 615.6 929.707 614.271C930.911 612.941 932.475 612.006 934.202 611.582C935.929 611.159 937.74 611.267 939.407 611.892C941.073 612.518 942.52 613.633 943.563 615.096C944.606 616.559 945.199 618.305 945.266 620.111C945.334 621.918 944.872 623.704 943.941 625.243L956.485 622.168L959.577 626.684L959.711 626.878Z" fill="black"/>
<path d="M905.469 674.66H874.075L865.105 629.585L872.113 619.314L885.567 623.594L900.144 644.134L905.469 674.66Z" fill="#E6E6E6"/>
<path d="M948.636 717.453L906.59 731.146L882.484 717.738L869.73 653.122L903.508 666.958L906.59 646.988L918.083 634.435L956.485 625.021L962.932 634.435L959.568 653.264L948.636 717.453Z" fill="#E6E6E6"/>
<path d="M936.302 632.439C941.256 632.439 945.271 628.352 945.271 623.31C945.271 618.268 941.256 614.181 936.302 614.181C931.348 614.181 927.332 618.268 927.332 623.31C927.332 628.352 931.348 632.439 936.302 632.439Z" fill="#E6E6E6"/>
<path d="M905.161 729.904L882.502 717.291L869.752 652.682L869.816 652.708L865.129 629.141L872.134 618.874L885.597 623.152L900.168 643.699L903.824 664.634L904.028 663.273L904.079 666.125L904.219 674.214L905.161 729.904Z" fill="#F2F2F2"/>
<path d="M882.758 717.811L882.216 717.665L893.393 675.006L880.594 657.834L881.041 657.489L894.006 674.885L882.758 717.811Z" fill="#CCCCCC"/>
<path d="M889.067 693.459L888.562 693.707L906.34 731.27L906.845 731.023L889.067 693.459Z" fill="#CCCCCC"/>
<path d="M1257.18 1015.91L1205.05 1027.32L1194.39 975.117L1214.02 948.3L1231.67 944.876L1251.3 965.131L1257.18 1015.91Z" fill="#CCCCCC"/>
<path d="M1233.07 1018.19H1201.68L1197.4 996.682L1192.71 973.115L1199.72 962.848L1213.18 967.126L1227.75 987.672L1231.41 1008.61L1231.66 1010.1L1233.07 1018.19Z" fill="#E6E6E6"/>
<path d="M1285.77 1005.64L1249.61 1009.92L1256.06 963.134L1270.64 949.727L1283.25 952.864L1291.66 972.548L1285.77 1005.64Z" fill="#CCCCCC"/>
<path d="M1290.53 977.963L1287.17 996.799L1276.24 1060.98L1234.2 1074.68L1232.74 1073.88L1210.09 1061.26L1197.34 996.656L1197.4 996.682L1231.11 1010.49L1231.41 1008.61L1231.61 1007.25L1234.2 990.524L1245.69 977.963L1284.09 968.552L1290.53 977.963Z" fill="#E6E6E6"/>
<path d="M1263.91 975.972C1268.86 975.972 1272.88 971.885 1272.88 966.843C1272.88 961.801 1268.86 957.714 1263.91 957.714C1258.95 957.714 1254.94 961.801 1254.94 966.843C1254.94 971.885 1258.95 975.972 1263.91 975.972Z" fill="#E6E6E6"/>
<path d="M1241.86 971.555L1221.39 975.264L1221.49 975.825L1241.95 972.117L1241.86 971.555Z" fill="white"/>
<path d="M1232.74 1073.88L1210.08 1061.26L1197.33 996.656L1197.4 996.682L1192.71 973.115L1199.72 962.848L1213.18 967.126L1227.75 987.672L1231.41 1008.61L1231.61 1007.25L1231.66 1010.1L1231.8 1018.19L1232.74 1073.88Z" fill="#F2F2F2"/>
<path d="M1210.36 1061.35L1209.82 1061.2L1220.99 1018.54L1208.2 1001.37L1208.64 1001.02L1221.61 1018.42L1210.36 1061.35Z" fill="#CCCCCC"/>
<path d="M1216.67 1036.99L1216.17 1037.24L1233.95 1074.8L1234.45 1074.56L1216.67 1036.99Z" fill="#CCCCCC"/>
<path d="M1360.2 1069.7H1325.81L1320.72 1002.29H1365.3L1360.2 1069.7Z" fill="#E6E6E6"/>
<path d="M1365.94 1029.52H1320.08V1039.89H1365.94V1029.52Z" fill="#F2F2F2"/>
<path d="M1377.72 1007.13L1370.39 1004.94L1370.29 1002.21L1337.71 992.438L1336.18 994.68L1328.85 992.483L1324.24 999.211L1378 1015.33L1377.72 1007.13Z" fill="#CCCCCC"/>
<path d="M299.195 984.625L299.162 984.851L299.071 985.504L289.739 1053.66L232.596 1075L231.7 1074.57L199.708 1059.1L183.165 994.499L182.031 990.065L182.376 989.931L253.151 962.869L299.153 984.601L299.195 984.625Z" fill="#47BE7D"/>
<path d="M231.7 1074.56L199.708 1059.1L182.031 990.064L182.376 989.931L228.486 1009.73L231.7 1074.56Z" fill="#47BE7D"/>
<path opacity="0.2" d="M232.503 1073.78L208.168 1026.31L211.294 1012.86L196.574 995.215L195.32 996.299L209.502 1013.3L198.908 1058.91L200.509 1059.29L207.59 1028.8L231.045 1074.55L232.503 1073.78Z" fill="black"/>
<path d="M299.195 985.463L299.071 985.504L228.486 1010.57L183.165 994.499L182.031 990.065L182.376 989.931L253.151 962.869L299.153 984.601L299.162 984.851L299.195 985.463Z" fill="#3F3D56"/>
<path d="M229.721 1011.82L215.332 1000.52L218.621 987.972L259.731 972.91L287.686 974.584L298.786 984.206L299.607 986.717L229.721 1011.82Z" fill="#47BE7D"/>
<path d="M182.855 990.065L215.332 988.81L232.926 982.731L260.356 972.91L265.487 965.379L252.686 963.048L182.855 990.065Z" fill="#47BE7D"/>
<path d="M247.559 976.599L230.625 982.647L231.169 984.226L248.103 978.178L247.559 976.599Z" fill="#CCCCCC"/>
<path d="M154.852 1071.25H120.462L115.367 1003.85H159.947L154.852 1071.25Z" fill="#47BE7D"/>
<path d="M160.584 1031.07H114.73V1041.44H160.584V1031.07Z" fill="#E6E6E6"/>
<path d="M162.495 999.957H154.853L154.004 997.364H120.039L119.19 999.957H111.547L109 1007.73H165.043L162.495 999.957Z" fill="#3F3D56"/>
<path d="M1138.58 1070.46H366.598V1073.05H1138.58V1070.46Z" fill="#3F3D56"/>
</g>
<defs>
<clipPath id="clip0_402_63">
<rect width="1269" height="662" fill="white" transform="translate(109 413)"/>
</clipPath>
</defs>
</svg>
